<?xml version="1.0" encoding="UTF-8"?>
<svg width="66px" height="67px" viewBox="0 0 66 67" version="1.1" xmlns="http://www.w3.org/2000/svg" xmlns:xlink="http://www.w3.org/1999/xlink">
    <!-- Generator: Sketch 52.6 (67491) - http://www.bohemiancoding.com/sketch -->
    <title>feature1</title>
    <desc>Created with Sketch.</desc>
    <g id="feature1" stroke="none" stroke-width="1" fill="none" fill-rule="evenodd">
        <g id="Group-8-Copy-10" transform="translate(1.000000, 1.000000)">
            <g id="Group-8-Copy-7" transform="translate(0.000000, 0.774798)">
                <g id="Group-8-Copy">
                    <ellipse id="Oval-Copy" fill="#FFE6E6" fill-rule="nonzero" cx="32" cy="32.0987654" rx="32" ry="32.0987654"></ellipse>
                    <g id="Group-6" transform="translate(31.876923, 32.623457) scale(-1, 1) translate(-31.876923, -32.623457) translate(20.676923, 12.962963)" fill="#FF7F7F" stroke="#FF7F7F" stroke-width="0.5">
                        <g id="Group-9">
                            <path d="M13.7294841,17.5131761 L13.7224597,17.5019078 L11.0637821,19.0595597 L5.41725298,15.7513836 C3.98141358,14.9101887 2.78678094,13.7165304 1.96244173,12.2994969 C1.13815655,10.8824633 0.702428218,9.27350105 0.702428218,7.64645702 L0.702428218,4.05531447 C0.702428218,2.2093501 2.25071189,0.707568134 4.15388938,0.707568134 L6.57471039,0.707568134 L15.5791141,0.707568134 L17.9999352,0.707568134 C19.9031126,0.707568134 21.4513963,2.2093501 21.4513963,4.05531447 L21.4513963,7.64645702 C21.4513963,9.27350105 21.015722,10.8824633 20.1913828,12.2994969 C19.3670436,13.7165304 18.172465,14.9101887 16.7365716,15.7513836 L13.7294841,17.5131761 Z M19.8318961,26.7827778 C20.8560522,28.5433648 21.3973626,30.5425262 21.3973626,32.5640147 L21.3973626,34.8595597 C21.3973626,36.7056289 19.8489708,38.2075681 17.9456853,38.2075681 L15.5791141,38.2075681 L6.52067662,38.2075681 L4.15410552,38.2075681 C2.25081996,38.2075681 0.702428218,36.7056289 0.702428218,34.8595597 L0.702428218,32.5640147 C0.702428218,30.5425262 1.24379257,28.5433648 2.26794867,26.7827778 C3.29210477,25.0221908 4.77641246,23.5391719 6.56039144,22.4939937 L8.42434041,21.4019078 L8.4313648,21.4132285 L11.0630256,19.8714046 L15.5394534,22.4939937 C17.3233783,23.5391719 18.807686,25.0221908 19.8318961,26.7827778 Z M22.1538353,7.64645702 L22.1538353,4.05531447 C22.1538353,1.83366876 20.2904267,0.0262264151 17.9999352,0.0262264151 L15.5791141,0.0262264151 L6.57471039,0.0262264151 L4.15388938,0.0262264151 C1.86345186,0.0262264151 -1.08067538e-05,1.83366876 -1.08067538e-05,4.05531447 L-1.08067538e-05,7.64645702 C-1.08067538e-05,9.390587 0.467057111,11.1153249 1.35067137,12.6343501 C2.23428563,14.1533229 3.514886,15.4328826 5.05403797,16.3346122 L8.02157268,18.073239 L8.01417006,18.0851363 L10.3705828,19.4656918 L6.19717644,21.9107652 C4.30993891,23.0164256 2.73966349,24.5853983 1.65617831,26.4479769 C0.572693133,28.3105031 -1.08067538e-05,30.4254403 -1.08067538e-05,32.5640147 L-1.08067538e-05,34.8595597 C-1.08067538e-05,37.0813103 1.86350589,38.8889099 4.15410552,38.8889099 L6.52067662,38.8889099 L15.5791141,38.8889099 L17.9456853,38.8889099 C20.2362849,38.8889099 22.0998016,37.0813103 22.0998016,34.8595597 L22.0998016,32.5640147 C22.0998016,30.4254403 21.5271517,28.3105031 20.4436665,26.4479769 C19.3601273,24.5853983 17.7899059,23.0164256 15.9026143,21.9107652 L14.0782721,20.8418973 L14.0856747,20.83 L11.7562248,19.4652725 L17.0997866,16.3346122 C18.6388845,15.4328826 19.9195389,14.1533229 20.8031532,12.6343501 C21.6868215,11.1153249 22.1538353,9.390587 22.1538353,7.64645702 Z" id="Fill-22"></path>
                        </g>
                    </g>
                </g>
            </g>
        </g>
    </g>
</svg>