<?xml version="1.0" encoding="UTF-8"?>
<svg width="19px" height="19px" viewBox="0 0 19 19" version="1.1" xmlns="http://www.w3.org/2000/svg" xmlns:xlink="http://www.w3.org/1999/xlink">
    <!-- Generator: Sketch 52.6 (67491) - http://www.bohemiancoding.com/sketch -->
    <title>phone</title>
    <desc>Created with Sketch.</desc>
    <g id="phone" stroke="none" stroke-width="1" fill="none" fill-rule="evenodd" stroke-linecap="square" stroke-linejoin="round">
        <g id="telephone-handle-silhouette" transform="translate(1.000000, 1.000000)" stroke="#6B6B6B" stroke-width="0.944444444">
            <path d="M16.9631667,13.1718284 C16.9150846,13.0269478 16.6091692,12.8135174 16.0456318,12.5320448 C15.8929701,12.4433234 15.6754378,12.3227587 15.3939652,12.169801 C15.1122388,12.0168433 14.8565199,11.8758955 14.6272736,11.7470846 C14.3975622,11.6183159 14.1823557,11.4935647 13.9812736,11.373 C13.9491343,11.3488532 13.8485299,11.2785274 13.6795025,11.1615572 C13.510306,11.0449254 13.3676244,10.9583607 13.2506965,10.9019055 C13.1340224,10.8457886 13.0192512,10.8175398 12.9065522,10.8175398 C12.745602,10.8175398 12.5445622,10.9323109 12.3031791,11.1615572 C12.061796,11.3910995 11.8403731,11.6404328 11.6392488,11.9103184 C11.4380821,12.1800771 11.2247363,12.4294104 10.999592,12.6588259 C10.7741095,12.8883259 10.5888433,13.0029701 10.4441318,13.0029701 C10.3714801,13.0029701 10.280898,12.9827139 10.1723433,12.9427512 C10.0638308,12.9025348 9.98128358,12.8680697 9.92461692,12.8402861 C9.86845771,12.8119104 9.77208209,12.7557512 9.63515174,12.6709627 C9.49796766,12.5864279 9.4216791,12.5401219 9.40560945,12.5320448 C8.30293532,11.9201716 7.35723632,11.2198731 6.56834328,10.4313184 C5.77970398,9.64229851 5.0793209,8.69668408 4.46761692,7.59388308 C4.45958209,7.57777114 4.41319154,7.50127114 4.32874129,7.36450995 C4.24416418,7.22762189 4.18779353,7.13116169 4.15962935,7.07466418 C4.13146517,7.01837811 4.09725373,6.93583085 4.0570796,6.82719154 C4.01690547,6.71855224 3.99673383,6.62805473 3.99673383,6.55552985 C3.99673383,6.41073383 4.11146269,6.22550995 4.34087811,6.00011194 C4.57025124,5.7748408 4.81983831,5.56145274 5.08938557,5.36037065 C5.35914428,5.15928856 5.60847761,4.93786567 5.83793532,4.69648259 C6.06730846,4.45497264 6.18199502,4.25384826 6.18199502,4.09289801 C6.18199502,3.98028358 6.15383085,3.86547015 6.09754478,3.74879602 C6.04121642,3.63186816 5.95469403,3.48918657 5.83793532,3.32007463 C5.72113433,3.15104726 5.65072388,3.05052736 5.62653483,3.01817662 C5.50592786,2.81709453 5.38130348,2.60180348 5.25236567,2.37238806 C5.12342786,2.14301493 4.98269154,1.88733831 4.82969154,1.60565423 C4.67681841,1.32409701 4.55616915,1.10669154 4.46753234,0.953776119 C4.18597512,0.390450249 3.97271393,0.0844502488 3.82779104,0.0363258706 C3.7714204,0.0121791045 3.68684328,0 3.57427114,0 C3.35682338,0 3.07315174,0.0401741294 2.72304478,0.120776119 C2.37281095,0.201251244 2.09721642,0.285659204 1.89596517,0.374338308 C1.49350498,0.543281095 1.0669403,1.03425124 0.616144279,1.8470796 C0.205649254,2.60353731 0.000422885572,3.35225622 0.000422885572,4.09268657 C0.000422885572,4.30983831 0.0145049751,4.52111194 0.0426691542,4.72654975 C0.0708333333,4.93177612 0.121156716,5.16322139 0.193681592,5.42084328 C0.266079602,5.6783806 0.3244801,5.86969403 0.368629353,5.99427612 C0.412820896,6.11894279 0.495325871,6.34226866 0.61610199,6.66433831 C0.736708955,6.98632338 0.809233831,7.18343035 0.833380597,7.25587065 C1.11506468,8.04472139 1.44910199,8.74895274 1.83540796,9.36877612 C2.47100498,10.39901 3.33838557,11.463709 4.43704229,12.5624502 C5.53574129,13.661107 6.60022886,14.5284453 7.63054726,15.164296 C8.25028607,15.5505597 8.95477114,15.8845547 9.74349502,16.1664502 C9.81597761,16.1904701 10.0130846,16.2628259 10.3349428,16.3838557 C10.6569279,16.5045473 10.8803383,16.5870522 11.005005,16.6313284 C11.1297139,16.6756468 11.3210697,16.7340896 11.5783955,16.8066144 C11.8362711,16.8791393 12.067505,16.9294627 12.2727313,16.9578383 C12.4780846,16.9856219 12.6894005,16.9999577 12.9065945,16.9999577 C13.6469826,16.9999577 14.3957438,16.7946045 15.1523284,16.3841517 C15.9650721,15.9335249 16.4559154,15.5068756 16.6249428,15.1041194 C16.7138333,14.9030796 16.7980299,14.6274005 16.878505,14.2771667 C16.9592338,13.927102 16.9993234,13.6434726 16.9993234,13.4260672 C16.9995771,13.3130299 16.9874403,13.2286642 16.9631667,13.1718284 Z" id="Path"></path>
        </g>
    </g>
</svg>