<?xml version="1.0" encoding="UTF-8"?>
<svg width="19px" height="19px" viewBox="0 0 19 19" version="1.1" xmlns="http://www.w3.org/2000/svg" xmlns:xlink="http://www.w3.org/1999/xlink">
    <!-- Generator: Sketch 52.6 (67491) - http://www.bohemiancoding.com/sketch -->
    <title>user</title>
    <desc>Created with Sketch.</desc>
    <g id="user" stroke="none" stroke-width="1" fill="none" fill-rule="evenodd" stroke-linecap="square" stroke-linejoin="round">
        <g id="Group" transform="translate(1.000000, 1.000000)" stroke="#6B6B6B">
            <path d="M13.887381,14.6321429 L11.2361905,13.1871429 C10.795,12.9483333 10.5197619,12.4828571 10.5197619,11.9809524 C10.5197619,11.7138095 10.6209524,11.4547619 10.8111905,11.2685714 C11.4102381,10.6816667 11.7866667,9.86 11.7866667,8.95333333 L11.7866667,6.15238095 C11.7866667,4.49285714 10.4428571,3.14904762 8.78333333,3.14904762 L8.29357143,3.14904762 C6.63404762,3.14904762 5.2902381,4.49285714 5.2902381,6.15238095 L5.2902381,8.95333333 C5.2902381,9.85190476 5.65857143,10.6654762 6.24952381,11.2564286 C6.43571429,11.442619 6.53690476,11.7016667 6.53690476,11.9647619 L6.53690476,11.985 C6.53690476,12.4869048 6.26166667,12.9483333 5.82452381,13.1911905 L3.16119048,14.6483333 C4.90436508,15.9972594 6.61515873,16.6717225 8.29357143,16.6717225 C9.97198413,16.6717225 11.8365873,15.9918626 13.887381,14.6321429 Z" id="Shape"></path>
            <circle id="Oval" cx="8.5" cy="8.5" r="8.15190476"></circle>
        </g>
    </g>
</svg>